:SAMPLES-PER-SECOND 30
:FRAME-RANGE 1-663
:FULLY-SPECIFIED
:DEGREES
166
root  -11.5695 28.0241 139.624 -156.506 25.2047 175.922
RightUpLeg  -73.3641 -0.528856 -3.61413
RightLeg  83.4888 -0.142072 -5.30235
RightFoot  -33.2251 0.50764 3.79652
RightToes  -3.4386e-010 1.2921e-014 -6.02303e-014
Spine  46.689 -4.73369 5.14159
Spine1  15.5347 0.428718 -3.02884
HEad  -11.3191 -2.04138 -11.8911
LeftShoulder1  3.50443 -19.3841 -8.11601
LeftArm  -28.4487 -54.5733 -25.239
LeftForeArm  -11.4794 1.44092 -4.72962
LeftHand  0.114126 0.0906414 -2.53433
RightShoulder  0.885132 10.8652 -2.3769
RightArm  -65.5934 72.4111 2.86744
RightForeArm  35.4354 -2.36428 -8.16972
RightHand  -0.388704 0.330672 -7.95927
LeftUpLeg  -75.4532 9.59826 -7.97608
LeftLeg  89.3953 -0.43479 6.19396
LeftFoot  -22.0982 -0.326481 -4.87326
LeftToes  -7.12384e-010 -7.51861e-011 -8.34901e-011
167
root  -11.4527 27.792 139.97 -163.817 23.0373 175.232
RightUpLeg  -66.8017 -2.28168 -3.14067
RightLeg  85.6477 0.0561075 -5.48537
RightFoot  -34.6479 0.444433 3.30093
RightToes  -3.4386e-010 1.2921e-014 -6.02303e-014
Spine  53.3908 -4.79089 4.46148
Spine1  18.2359 -0.222934 -1.5388
HEad  -13.99 -3.50223 -12.168
LeftShoulder1  3.59603 -19.668 -8.34485
LeftArm  -30.5216 -55.9644 -23.7096
LeftForeArm  -11.9025 -0.24402 -4.43194
LeftHand  0.129112 -0.564685 -2.4747
RightShoulder  0.52328 10.0926 -5.06787
RightArm  -69.0531 70.6469 -1.27227
RightForeArm  32.5363 -1.05705 -8.67202
RightHand  -0.336127 1.07738 -6.15775
LeftUpLeg  -66.5463 8.02617 -7.12124
LeftLeg  88.0812 -0.29292 7.32387
LeftFoot  -27.2241 -1.25882 -10.1741
LeftToes  -7.12384e-010 -7.51861e-011 -8.34901e-011
168
root  -11.3993 27.5623 140.32 -171.618 21.2977 175.191
RightUpLeg  -59.1839 -3.875 -2.64986
RightLeg  87.2357 0.210062 -5.66908
RightFoot  -36.1232 0.34146 2.67747
RightToes  -3.4386e-010 1.2921e-014 -6.02303e-014
Spine  60.5582 -4.77828 4.06817
Spine1  20.9971 -0.67812 -0.271788
HEad  -16.4503 -4.97965 -12.9307
LeftShoulder1  3.84889 -19.9709 -9.32493
LeftArm  -33.0862 -57.0347 -21.9642
LeftForeArm  -12.6588 -2.37764 -4.00478
LeftHand  0.159896 -1.25906 -2.68616
RightShoulder  0.2247 9.53805 -7.5514
RightArm  -71.3078 68.5545 -3.75568
RightForeArm  30.2855 0.281213 -9.3399
RightHand  -0.252972 2.2122 -4.053
LeftUpLeg  -57.6238 5.67402 -5.35163
LeftLeg  87.7608 -0.241259 9.46309
LeftFoot  -31.399 -1.60984 -10.151
LeftToes  -7.12384e-010 -7.51861e-011 -8.34901e-011
169
root  -11.3512 27.291 140.642 -179.807 20.0419 175.239
RightUpLeg  -51.0669 -4.92229 -2.8583
RightLeg  88.8699 0.373106 -5.47272
RightFoot  -37.4809 0.316731 2.46881
RightToes  -3.4386e-010 1.2921e-014 -6.02303e-014
Spine  67.7029 -4.47094 3.23056
Spine1  23.8317 -1.00817 0.594082
HEad  -18.522 -6.1502 -13.8387
LeftShoulder1  4.08948 -20.2311 -10.2545
LeftArm  -35.2874 -57.4909 -20.503
LeftForeArm  -13.3723 -4.89876 -3.72183
LeftHand  0.189598 -2.10316 -2.76994
RightShoulder  0.0198174 8.97367 -9.38524
RightArm  -73.0998 66.9986 -5.39761
RightForeArm  27.3896 1.37948 -10.0766
RightHand  -0.126 3.45021 -1.90158
LeftUpLeg  -48.6911 3.49505 -4.06365
LeftLeg  88.0054 -0.282579 10.8959
LeftFoot  -34.4116 -1.93658 -10.4834
LeftToes  -7.12384e-010 -7.51861e-011 -8.34901e-011
170
root  -11.2881 27.0198 140.923 172.307 19.0501 175.131
RightUpLeg  -43.08 -5.63418 -3.46603
RightLeg  90.1931 0.511255 -5.68027
RightFoot  -38.8111 0.194383 1.88312
RightToes  -3.4386e-010 1.2921e-014 -6.02303e-014
Spine  75.4327 -3.74295 3.88291
Spine1  23.1941 0.327964 1.55855
HEad  -17.4349 -9.5629 -14.1215
LeftShoulder1  5.58915 -25.4667 -12.434
LeftArm  -35.9987 -55.3178 -19.8118
LeftForeArm  -12.5671 -7.25845 -3.69666
LeftHand  0.2106 -2.70336 -2.81713
RightShoulder  0.251988 8.97346 -7.21092
RightArm  -69.4445 62.2894 -5.38055
RightForeArm  24.7493 3.02105 -8.72388
RightHand  0.0329981 4.28881 0.11576
LeftUpLeg  -40.4205 2.27114 -3.74646
LeftLeg  88.2346 -0.331216 11.9091
LeftFoot  -36.25 -2.26303 -11.2105
LeftToes  -7.12384e-010 -7.51861e-011 -8.34901e-011
171
root  -11.2065 26.7216 141.108 165.109 18.5002 174.825
RightUpLeg  -35.6055 -4.84945 -4.09177
RightLeg  91.1112 0.669503 -6.86335
RightFoot  -40.3705 0.331497 2.35073
RightToes  -3.4386e-010 1.2921e-014 -6.02303e-014
Spine  81.4958 -2.70154 3.6491
Spine1  24.8348 0.737247 3.1932
HEad  -17.9419 -11.9033 -15.6775
LeftShoulder1  6.49872 -27.0278 -14.5871
LeftArm  -37.0853 -55.2789 -20.0952
LeftForeArm  -11.6765 -10.3745 -3.68814
LeftHand  0.247437 -3.57251 -2.95751
RightShoulder  0.16428 7.90552 -7.90222
RightArm  -69.1756 60.2148 -5.17353
RightForeArm  21.3591 4.72108 -8.86422
RightHand  0.244121 6.05139 2.13841
LeftUpLeg  -32.9389 1.9286 -3.87356
LeftLeg  88.6464 -0.426248 12.4686
LeftFoot  -37.6649 -2.59459 -12.0351
LeftToes  -7.12384e-010 -7.51861e-011 -8.34901e-011
172
root  -11.1339 26.4409 141.268 158.821 18.0358 174.263
RightUpLeg  -29.3864 -4.43302 -5.08935
RightLeg  92.1777 0.800914 -6.86244
RightFoot  -41.3342 0.45605 2.7627
RightToes  -3.4386e-010 1.2921e-014 -6.02303e-014
Spine  86.5859 -1.28588 3.94939
Spine1  26.2363 1.23303 6.18012
HEad  -18.1895 -15.3332 -17.5748
LeftShoulder1  7.82984 -29.0077 -17.5751
LeftArm  -37.8204 -55.3457 -21.6755
LeftForeArm  -10.293 -14.3419 -3.79828
LeftHand  0.219016 -4.01202 -2.43744
RightShoulder  0.0175302 6.83575 -9.40996
RightArm  -67.7418 56.6392 -4.32843
RightForeArm  17.7969 7.50914 -8.41458
RightHand  0.413409 7.17009 3.45023
LeftUpLeg  -26.3998 1.8905 -4.24975
LeftLeg  88.946 -0.500095 12.8234
LeftFoot  -38.9249 -2.72544 -12.0292
LeftToes  -7.12384e-010 -7.51861e-011 -8.34901e-011
173
root  -11.0539 26.1826 141.375 153.422 17.6336 173.535
RightUpLeg  -24.0348 -3.82175 -6.037
RightLeg  93.0003 0.920621 -7.06642
RightFoot  -42.2667 0.599855 3.21961
RightToes  -3.4386e-010 1.2921e-014 -6.02303e-014
Spine  91.0111 0.00914322 4.78511
Spine1  27.0662 1.85647 9.72702
HEad  -17.4399 -19.0184 -20.1201
LeftShoulder1  9.60432 -31.2665 -21.2917
LeftArm  -38.6007 -55.6031 -23.6079
LeftForeArm  -8.12999 -18.2624 -4.23835
LeftHand  0.22603 -4.56331 -2.34816
RightShoulder  -0.151383 5.38383 -11.6515
RightArm  -67.109 52.5879 -2.90304
RightForeArm  16.2619 10.4122 -7.57169
RightHand  0.62847 8.18192 4.97572
LeftUpLeg  -20.7622 2.29311 -4.62621
LeftLeg  89.1074 -0.534835 12.644
LeftFoot  -40.0203 -2.82793 -11.9785
LeftToes  -7.12384e-010 -7.51861e-011 -8.34901e-011
174
root  -10.9944 25.9909 141.451 149.012 17.3991 172.891
RightUpLeg  -19.5795 -3.096 -6.69218
RightLeg  93.438 1.02191 -7.53841
RightFoot  -43.0679 0.662405 3.37475
RightToes  -3.4386e-010 1.2921e-014 -6.02303e-014
Spine  94.7352 0.58853 6.3454
Spine1  27.6777 2.86594 13.0543
HEad  -16.2037 -23.5206 -22.4559
LeftShoulder1  11.389 -33.9413 -24.1283
LeftArm  -37.7932 -56.1147 -26.8248
LeftForeArm  -5.09138 -22.2985 -5.00584
LeftHand  0.210162 -4.55563 -2.16526
RightShoulder  -0.241498 3.23469 -13.9842
RightArm  -68.7578 47.8697 -1.08082
RightForeArm  17.3605 14.2366 -5.24189
RightHand  0.848354 9.14556 6.34782
LeftUpLeg  -16.2051 3.1515 -4.73437
LeftLeg  89.2442 -0.556398 12.1871
LeftFoot  -40.6395 -2.89719 -11.9936
LeftToes  -7.12384e-010 -7.51861e-011 -8.34901e-011
175
root  -10.9422 25.8588 141.504 145.619 17.1386 172.307
RightUpLeg  -16.2124 -2.29337 -7.21654
RightLeg  93.8698 1.13019 -8.01084
RightFoot  -43.4722 0.650382 3.29854
RightToes  -3.4386e-010 1.2921e-014 -6.02303e-014
Spine  97.469 0.511349 8.23218
Spine1  28.4448 3.92478 16.104
HEad  -14.6628 -28.3201 -25.0634
LeftShoulder1  13.1127 -37.0571 -25.9724
LeftArm  -36.2584 -56.9766 -30.623
LeftForeArm  -2.33987 -26.1401 -5.73184
LeftHand  0.183618 -4.59231 -1.8462
RightShoulder  -0.149678 0.187107 -14.9844
RightArm  -71.2048 44.6755 -1.21865
RightForeArm  19.675 17.0727 -2.46518
RightHand  0.893445 9.16614 6.69493
LeftUpLeg  -12.7068 3.81607 -4.80607
LeftLeg  89.2405 -0.547282 11.7938
LeftFoot  -40.8175 -2.80028 -11.5576
LeftToes  -7.12384e-010 -7.51861e-011 -8.34901e-011
176
root  -10.8838 25.788 141.522 143.21 16.7319 171.681
RightUpLeg  -13.7253 -1.58791 -7.64641
RightLeg  93.9232 1.19788 -8.57944
RightFoot  -43.8134 0.882701 4.06798
RightToes  -3.4386e-010 1.2921e-014 -6.02303e-014
Spine  99.4121 0.302621 9.68089
Spine1  29.0029 4.69216 18.476
HEad  -13.3484 -32.0828 -27.3005
LeftShoulder1  14.5132 -39.7382 -27.1024
LeftArm  -34.7231 -57.9788 -34.2061
LeftForeArm  -1.87571 -29.2795 -6.45691
LeftHand  0.236376 -4.68117 -2.4323
RightShoulder  -0.0615928 -1.95596 -16.4247
RightArm  -75.5614 41.2243 -0.0284224
RightForeArm  23.5314 19.3409 -0.336427
RightHand  0.885155 9.31646 6.55487
LeftUpLeg  -10.0985 4.23372 -5.13421
LeftLeg  89.0086 -0.492219 11.3951
LeftFoot  -41.1396 -2.85812 -11.6509
LeftToes  -7.12384e-010 -7.51861e-011 -8.34901e-011
177
root  -10.8386 25.8393 141.532 141.816 16.3944 171.321
RightUpLeg  -12.1101 -0.778265 -7.56878
RightLeg  93.6638 1.28438 -9.82945
RightFoot  -43.6212 0.880308 4.08042
RightToes  -3.4386e-010 1.2921e-014 -6.02303e-014
Spine  100.621 0.146698 10.7395
Spine1  29.4357 5.30129 20.1831
HEad  -12.2872 -34.8518 -28.9152
LeftShoulder1  15.47 -41.8268 -27.5606
LeftArm  -34.0043 -59.219 -37.1236
LeftForeArm  -2.22828 -30.5629 -6.79723
LeftHand  0.15328 -4.38295 -1.53912
RightShoulder  0.0457898 -3.65727 -17.2171
RightArm  -77.4693 39.2711 0.966726
RightForeArm  23.6695 20.4325 0.92371
RightHand  0.820167 8.91863 6.23175
LeftUpLeg  -8.40517 4.32806 -5.41762
LeftLeg  88.4543 -0.379706 11.2935
LeftFoot  -41.0068 -2.83941 -11.632
LeftToes  -7.12384e-010 -7.51861e-011 -8.34901e-011
